<?xml version="1.0" encoding="UTF-8"?>
<svg width="100px" height="100px" viewBox="0 0 100 100" version="1.1" xmlns="http://www.w3.org/2000/svg" xmlns:xlink="http://www.w3.org/1999/xlink">
    <!-- Generator: Sketch 48.2 (47327) - http://www.bohemiancoding.com/sketch -->
    <title>partlysunny</title>
    <desc>Created with Sketch.</desc>
    <defs></defs>
    <g id="Weather-@2x" stroke="none" stroke-width="1" fill="none" fill-rule="evenodd" transform="translate(-23.000000, -285.000000)">
        <g id="Day-Time-icons" transform="translate(23.000000, 151.000000)">
            <g id="partlysunny" transform="translate(0.000000, 134.000000)">
                <rect id="Rectangle-1" stroke="#2B2B2B" opacity="0.0229127799" x="0.5" y="0.5" width="99" height="99"></rect>
                <g id="Imported-Layers" transform="translate(3.000000, 17.000000)" fill="#FFFFFF">
                    <path d="M73.8289655,37.139447 C72.8822069,37.139447 71.9369655,37.2413698 71.0129655,37.4436941 C68.0573793,30.5190295 61.1630345,25.8990368 53.7027586,25.8990368 C44.3929655,25.8990368 36.652,32.536188 35.1104828,41.7533547 L35.0452414,41.7533547 C28.958069,41.7533547 24.0057931,46.7658262 24.0057931,52.9283518 C24.0057931,59.0878349 28.958069,64.0987851 35.0452414,64.0987851 L73.8289655,64.0987851 C81.1708966,64.0987851 87.1442759,58.0518734 87.1442759,50.6191161 C87.1442759,43.1863587 81.1708966,37.139447 73.8289655,37.139447 L73.8289655,37.139447 Z M84.4663448,50.6191161 C84.4663448,56.5625837 79.6946207,61.3985918 73.8289655,61.3985918 L35.0452414,61.3985918 C30.4343448,61.3985918 26.6837241,57.5985452 26.6837241,52.9283518 C26.6837241,48.2551159 30.4343448,44.453548 35.0452414,44.453548 C35.3532414,44.453548 35.690069,44.4778878 36.1042759,44.5296098 L37.4652414,44.6999882 L37.6017931,43.3247911 C38.4408276,34.9306129 45.364,28.6007513 53.7027586,28.6007513 C60.5242759,28.6007513 66.6478621,32.9834312 68.9404138,39.5095321 L69.3728276,40.741733 L70.6063448,40.3446905 C71.6547586,40.0100187 72.738069,39.8411615 73.8289655,39.8411615 C79.6946207,39.8411615 84.4663448,44.6756484 84.4663448,50.6191161 L84.4663448,50.6191161 Z" id="Fill-1"></path>
                    <path d="M19.2264828,19.8871136 C19.756,20.4834379 20.6754483,20.5382024 21.2702069,20.0088124 C21.8664828,19.4779012 21.9211034,18.5560324 21.3915862,17.959708 L12.8844138,8.35310492 C12.3564138,7.75678055 11.4369655,7.70201607 10.8406897,8.23292731 C10.245931,8.76231731 10.1913103,9.68418611 10.7193103,10.2820317 L19.2264828,19.8871136" id="Fill-2"></path>
                    <path d="M18.209931,43.6442506 L8.83034483,52.3943981 C8.24772414,52.9390004 8.21434483,53.8608692 8.756,54.4465449 C9.29917241,55.0306994 10.2201379,55.0641666 10.8027586,54.5195642 L20.1823448,45.7694168 C20.7649655,45.2263357 20.7983448,44.3029457 20.2566897,43.7187912 C19.7135172,43.1346367 18.7925517,43.1011695 18.209931,43.6442506" id="Fill-3"></path>
                    <path d="M55.8754483,10.2744255 C55.3322759,9.69027105 54.4113103,9.65680387 53.8286897,10.199885 L44.4491034,18.9500324 C43.8664828,19.4946348 43.8331034,20.4165036 44.3762759,21.0021793 C44.917931,21.5863338 45.8388966,21.619801 46.4215172,21.0751986 L55.8011034,12.3250512 C56.3837241,11.7819701 56.4171034,10.85858 55.8754483,10.2744255" id="Fill-4"></path>
                    <path d="M33.7070345,15.9334221 C34.5005517,15.9957928 35.2,15.3949047 35.2622069,14.5992985 L36.262069,1.79353682 C36.3242759,0.997930583 35.7249655,0.295119715 34.9314483,0.232749054 C34.137931,0.170378392 33.4369655,0.771266472 33.3747586,1.56687271 L32.3764138,14.3726344 C32.3142069,15.1697618 32.912,15.8710515 33.7070345,15.9334221" id="Fill-5"></path>
                    <path d="M16.0129655,31.0210373 L16.0129655,31.0210373 C16.0857931,30.2269522 15.4971034,29.5165352 14.7051034,29.4419947 L1.94813793,28.2523884 C1.15462069,28.1793691 0.446068966,28.7680873 0.373241379,29.5636935 C0.298896552,30.3592997 0.887586207,31.0697168 1.67958621,31.1427361 L14.4365517,32.3323424 C15.230069,32.4068829 15.9386207,31.8166435 16.0129655,31.0210373" id="Fill-6"></path>
                    <path d="M21.5008276,31.4880566 C22.0273103,25.6069596 27.2268966,21.2516619 33.0925517,21.7795307 C36.0557241,22.0472682 38.6274483,23.5106969 40.3813793,25.6510754 C41.0201379,25.0212839 41.7165517,24.421917 42.4721379,23.8712297 C40.2675862,21.1999399 37.0449655,19.3744572 33.3368276,19.0413066 C25.966069,18.3780478 19.4313103,23.8514537 18.7697931,31.2416164 C18.341931,36.0182963 20.4782069,40.4329222 24.0270345,43.1452853 C24.4275862,42.4546444 24.9677241,41.7001115 25.6853793,40.960791 C22.8617931,38.8021576 21.1609655,35.2881032 21.5008276,31.4880566" id="Fill-7"></path>
                </g>
            </g>
        </g>
    </g>
</svg>