<?xml version="1.0" encoding="UTF-8"?>
<svg width="100px" height="100px" viewBox="0 0 100 100" version="1.1" xmlns="http://www.w3.org/2000/svg" xmlns:xlink="http://www.w3.org/1999/xlink">
    <!-- Generator: Sketch 48.2 (47327) - http://www.bohemiancoding.com/sketch -->
    <title>snow</title>
    <desc>Created with Sketch.</desc>
    <defs></defs>
    <g id="Weather-@2x" stroke="none" stroke-width="1" fill="none" fill-rule="evenodd" transform="translate(-601.000000, -285.000000)">
        <g id="Day-Time-icons" transform="translate(23.000000, 151.000000)">
            <g id="snow" transform="translate(578.000000, 134.000000)">
                <rect id="Rectangle-1" stroke="#2B2B2B" opacity="0.0229127799" x="0.5" y="0.5" width="99" height="99"></rect>
                <polyline id="Fill-1" fill="#FFFFFF" points="77.7649719 58.4516443 77.3237773 55.3079027 63.9014747 57.2674622 53.0980361 50.9090296 63.8998098 44.5522862 77.3237773 46.5118457 77.7649719 43.3697934 68.268468 41.981209 82.9677374 33.3304296 81.41107 30.5802892 66.7101356 39.2327579 70.2813139 30.1529026 67.3894087 28.972099 62.3431423 41.8021458 51.7911013 48.0119222 51.7911013 35.4454024 60.1671377 24.5749151 57.7180919 22.6119771 51.7911013 30.3049373 51.7911013 13 48.6761016 13 48.6761016 30.3049373 42.7474462 22.6119771 40.3000652 24.5749151 48.6761016 35.4454024 48.6761016 48.3058562 37.6245951 41.8021458 32.5766638 28.972099 29.6847586 30.1545918 33.2559369 39.2327579 18.5566675 30.5802892 17 33.3304296 31.6992695 41.981209 22.2011007 43.3697934 22.6439601 46.5118457 36.0662627 44.5522862 46.8697014 50.9090296 36.0645979 57.2674622 22.6439601 55.3079027 22.2011007 58.4516443 31.6992695 59.8385394 17 68.4893188 18.5566675 71.2394592 33.2576018 62.5869905 29.6847586 71.6668459 32.5766638 72.8476494 37.6229302 60.0176026 48.6761016 53.5138923 48.6761016 66.3236677 40.3000652 77.1975336 42.749111 79.157093 48.6761016 71.4658221 48.6761016 87.7571942 51.7911013 87.7571942 51.7911013 71.4658221 57.7180919 79.157093 60.1671377 77.1975336 51.7911013 66.325357 51.7911013 53.8078262 62.3431423 60.0176026 67.3894087 72.8476494 70.2813139 71.6668459 66.7101356 62.5869905 81.41107 71.2394592 82.9677374 68.4893188 68.268468 59.8385394 77.7649719 58.4516443"></polyline>
            </g>
        </g>
    </g>
</svg>